{
  "asset": {
    "generator": "Khronos glTF Blender I/O v3.2.40",
    "version": "2.0"
  },
  "scene": 0,
  "scenes": [
    {
      "name": "Scene",
      "nodes": [
        0
      ]
    }
  ],
  "nodes": [
    {
      "mesh": 0,
      "name": "MP_FRAME_LEGS",
      "rotation": [
        0.7071068286895752,
        0,
        0,
        0.7071067094802856
      ],
      "scale": [
        0.009999999776482582,
        0.009999999776482582,
        0.009999999776482582
      ]
    }
  ],
  "animations": [
    {
      "channels": [
        {
          "sampler": 0,
          "target": {
            "node": 0,
            "path": "translation"
          }
        },
        {
          "sampler": 1,
          "target": {
            "node": 0,
            "path": "rotation"
          }
        },
        {
          "sampler": 2,
          "target": {
            "node": 0,
            "path": "scale"
          }
        }
      ],
      "name": "MP_FRAME_LEGS",
      "samplers": [
        {
          "input": 12,
          "interpolation": "LINEAR",
          "output": 13
        },
        {
          "input": 12,
          "interpolation": "LINEAR",
          "output": 14
        },
        {
          "input": 12,
          "interpolation": "LINEAR",
          "output": 15
        }
      ]
    }
  ],
  "materials": [
    {
      "doubleSided": true,
      "emissiveFactor": [
        1,
        1,
        1
      ],
      "emissiveTexture": {
        "index": 0
      },
      "name": "MP_FRAME",
      "normalTexture": {
        "index": 1
      },
      "pbrMetallicRoughness": {
        "baseColorTexture": {
          "index": 2
        },
        "metallicRoughnessTexture": {
          "index": 3
        }
      }
    }
  ],
  "meshes": [
    {
      "name": "Mesh.018",
      "primitives": [
        {
          "attributes": {
            "POSITION": 0,
            "NORMAL": 1,
            "TEXCOORD_0": 2,
            "TEXCOORD_1": 3,
            "TEXCOORD_2": 4,
            "TEXCOORD_3": 5,
            "TEXCOORD_4": 6,
            "TEXCOORD_5": 7,
            "TEXCOORD_6": 8,
            "TEXCOORD_7": 9,
            "COLOR_0": 10
          },
          "indices": 11,
          "material": 0
        }
      ]
    }
  ],
  "textures": [
    {
      "sampler": 0,
      "source": 0
    },
    {
      "sampler": 0,
      "source": 1
    },
    {
      "sampler": 0,
      "source": 2
    },
    {
      "sampler": 0,
      "source": 3
    }
  ],
  "images": [
    {
      "name": "MP_Frame_E",
      "uri": "https://mechpavs.vercel.app/assets/models/textures/MP_Frame_E.jpg"
    },
    {
      "name": "MP_Frame_N",
      "uri": "https://mechpavs.vercel.app/assets/models/textures/MP_Frame_N.jpg"
    },
    {
      "name": "MP_Frame_A",
      "uri": "https://mechpavs.vercel.app/assets/models/textures/MP_Frame_A.jpg"
    },
    {
      "name": "MP_Frame_M-MP_Frame_R",
      "uri": "https://mechpavs.vercel.app/assets/models/textures/MP_Frame_M-MP_Frame_R.png"
    }
  ],
  "accessors": [
    {
      "bufferView": 0,
      "componentType": 5126,
      "count": 14328,
      "max": [
        51.400848388671875,
        34.937705993652344,
        -0.41688448190689087
      ],
      "min": [
        -49.63966369628906,
        -30.356487274169922,
        -154.99501037597656
      ],
      "type": "VEC3"
    },
    {
      "bufferView": 1,
      "componentType": 5126,
      "count": 14328,
      "type": "VEC3"
    },
    {
      "bufferView": 2,
      "componentType": 5126,
      "count": 14328,
      "type": "VEC2"
    },
    {
      "bufferView": 3,
      "componentType": 5126,
      "count": 14328,
      "type": "VEC2"
    },
    {
      "bufferView": 4,
      "componentType": 5126,
      "count": 14328,
      "type": "VEC2"
    },
    {
      "bufferView": 5,
      "componentType": 5126,
      "count": 14328,
      "type": "VEC2"
    },
    {
      "bufferView": 6,
      "componentType": 5126,
      "count": 14328,
      "type": "VEC2"
    },
    {
      "bufferView": 7,
      "componentType": 5126,
      "count": 14328,
      "type": "VEC2"
    },
    {
      "bufferView": 8,
      "componentType": 5126,
      "count": 14328,
      "type": "VEC2"
    },
    {
      "bufferView": 9,
      "componentType": 5126,
      "count": 14328,
      "type": "VEC2"
    },
    {
      "bufferView": 10,
      "componentType": 5123,
      "count": 14328,
      "normalized": true,
      "type": "VEC4"
    },
    {
      "bufferView": 11,
      "componentType": 5123,
      "count": 20760,
      "type": "SCALAR"
    },
    {
      "bufferView": 12,
      "componentType": 5126,
      "count": 301,
      "max": [
        10
      ],
      "min": [
        0
      ],
      "type": "SCALAR"
    },
    {
      "bufferView": 13,
      "componentType": 5126,
      "count": 301,
      "type": "VEC3"
    },
    {
      "bufferView": 14,
      "componentType": 5126,
      "count": 301,
      "type": "VEC4"
    },
    {
      "bufferView": 15,
      "componentType": 5126,
      "count": 301,
      "type": "VEC3"
    }
  ],
  "bufferViews": [
    {
      "buffer": 0,
      "byteLength": 171936,
      "byteOffset": 0
    },
    {
      "buffer": 0,
      "byteLength": 171936,
      "byteOffset": 171936
    },
    {
      "buffer": 0,
      "byteLength": 114624,
      "byteOffset": 343872
    },
    {
      "buffer": 0,
      "byteLength": 114624,
      "byteOffset": 458496
    },
    {
      "buffer": 0,
      "byteLength": 114624,
      "byteOffset": 573120
    },
    {
      "buffer": 0,
      "byteLength": 114624,
      "byteOffset": 687744
    },
    {
      "buffer": 0,
      "byteLength": 114624,
      "byteOffset": 802368
    },
    {
      "buffer": 0,
      "byteLength": 114624,
      "byteOffset": 916992
    },
    {
      "buffer": 0,
      "byteLength": 114624,
      "byteOffset": 1031616
    },
    {
      "buffer": 0,
      "byteLength": 114624,
      "byteOffset": 1146240
    },
    {
      "buffer": 0,
      "byteLength": 114624,
      "byteOffset": 1260864
    },
    {
      "buffer": 0,
      "byteLength": 41520,
      "byteOffset": 1375488
    },
    {
      "buffer": 0,
      "byteLength": 1204,
      "byteOffset": 1417008
    },
    {
      "buffer": 0,
      "byteLength": 3612,
      "byteOffset": 1418212
    },
    {
      "buffer": 0,
      "byteLength": 4816,
      "byteOffset": 1421824
    },
    {
      "buffer": 0,
      "byteLength": 3612,
      "byteOffset": 1426640
    }
  ],
  "samplers": [
    {
      "magFilter": 9729,
      "minFilter": 9987
    }
  ],
  "buffers": [
    {
      "uri": "legs_data.bin",
      "byteLength": 1430252
    }
  ]
}