{
    "asset" : {
        "generator" : "Khronos glTF Blender I/O v3.2.40",
        "version" : "2.0"
    },
    "scene" : 0,
    "scenes" : [
        {
            "name" : "Scene",
            "nodes" : [
                0,
                1
            ]
        }
    ],
    "nodes" : [
        {
            "mesh" : 0,
            "name" : "MP_DEF_Legs",
            "scale" : [
                0.0012565100332722068,
                0.0012565100332722068,
                0.0012565100332722068
            ]
        },
        {
            "mesh" : 1,
            "name" : "MP_DEF_Frame_Legs",
            "rotation" : [
                0.7071068286895752,
                0,
                0,
                0.7071067094802856
            ],
            "scale" : [
                0.009999999776482582,
                0.009999999776482582,
                0.009999999776482582
            ]
        }
    ],
    "materials" : [
        {
            "doubleSided" : true,
            "emissiveFactor" : [
                1,
                1,
                1
            ],
            "emissiveTexture" : {
                "index" : 0
            },
            "name" : "MP_DEF_ClassSpecific",
            "normalTexture" : {
                "index" : 1
            },
            "pbrMetallicRoughness" : {
                "baseColorTexture" : {
                    "index" : 2
                },
                "metallicRoughnessTexture" : {
                    "index" : 3
                },
                "roughnessFactor" : 0.20000000298023224
            }
        },
        {
            "doubleSided" : true,
            "emissiveFactor" : [
                1,
                1,
                1
            ],
            "emissiveTexture" : {
                "index" : 4
            },
            "name" : "MP_FRAME",
            "normalTexture" : {
                "index" : 5
            },
            "pbrMetallicRoughness" : {
                "baseColorTexture" : {
                    "index" : 6
                },
                "metallicRoughnessTexture" : {
                    "index" : 7
                }
            }
        }
    ],
    "meshes" : [
        {
            "name" : "Mesh.005",
            "primitives" : [
                {
                    "attributes" : {
                        "POSITION" : 0,
                        "NORMAL" : 1,
                        "TEXCOORD_0" : 2
                    },
                    "indices" : 3,
                    "material" : 0
                }
            ]
        },
        {
            "name" : "Mesh.006",
            "primitives" : [
                {
                    "attributes" : {
                        "POSITION" : 4,
                        "NORMAL" : 5,
                        "TEXCOORD_0" : 6,
                        "TEXCOORD_1" : 7,
                        "TEXCOORD_2" : 8,
                        "TEXCOORD_3" : 9,
                        "TEXCOORD_4" : 10,
                        "TEXCOORD_5" : 11,
                        "TEXCOORD_6" : 12,
                        "TEXCOORD_7" : 13,
                        "COLOR_0" : 14
                    },
                    "indices" : 15,
                    "material" : 1
                }
            ]
        }
    ],
    "textures" : [
        {
            "sampler" : 0,
            "source" : 0
        },
        {
            "sampler" : 0,
            "source" : 1
        },
        {
            "sampler" : 0,
            "source" : 2
        },
        {
            "sampler" : 0,
            "source" : 3
        },
        {
            "sampler" : 0,
            "source" : 4
        },
        {
            "sampler" : 0,
            "source" : 5
        },
        {
            "sampler" : 0,
            "source" : 6
        },
        {
            "sampler" : 0,
            "source" : 7
        }
    ],
    "images" : [
        {
            "mimeType" : "image/jpeg",
            "name" : "MP_DEF_ClassSpecific_E",
            "uri" : "https://mechpavs.vercel.app/assets/models/textures/MP_DEF_ClassSpecific_E.jpg"
        },
        {
            "mimeType" : "image/jpeg",
            "name" : "MP_DEF_ClassSpecific_N",
            "uri" : "https://mechpavs.vercel.app/assets/models/textures/MP_DEF_ClassSpecific_N.jpg"
        },
        {
            "mimeType" : "image/jpeg",
            "name" : "MP_DEF_ClassSpecific_A",
            "uri" : "https://mechpavs.vercel.app/assets/models/textures/MP_DEF_ClassSpecific_A.jpg"
        },
        {
            "mimeType" : "image/png",
            "name" : "MP_DEF_ClassSpecific_M",
            "uri" : "https://mechpavs.vercel.app/assets/models/textures/MP_DEF_ClassSpecific_M.png"
        },
        {
            "mimeType" : "image/jpeg",
            "name" : "MP_Frame_E",
            "uri" : "https://mechpavs.vercel.app/assets/models/textures/MP_Frame_E.jpg"
        },
        {
            "mimeType" : "image/jpeg",
            "name" : "MP_Frame_N",
            "uri" : "https://mechpavs.vercel.app/assets/models/textures/MP_Frame_N.jpg"
        },
        {
            "mimeType" : "image/jpeg",
            "name" : "MP_Frame_A",
            "uri" : "https://mechpavs.vercel.app/assets/models/textures/MP_Frame_A.jpg"
        },
        {
            "mimeType" : "image/png",
            "name" : "MP_Frame_M-MP_Frame_R",
            "uri" : "https://mechpavs.vercel.app/assets/models/textures/MP_Frame_M-MP_Frame_R.png"
        }
    ],
    "accessors" : [
        {
            "bufferView" : 0,
            "componentType" : 5126,
            "count" : 3974,
            "max" : [
                454.5248718261719,
                1274.93408203125,
                325.4507141113281
            ],
            "min" : [
                -463.9718322753906,
                0.21611666679382324,
                -313.1623840332031
            ],
            "type" : "VEC3"
        },
        {
            "bufferView" : 1,
            "componentType" : 5126,
            "count" : 3974,
            "type" : "VEC3"
        },
        {
            "bufferView" : 2,
            "componentType" : 5126,
            "count" : 3974,
            "type" : "VEC2"
        },
        {
            "bufferView" : 3,
            "componentType" : 5123,
            "count" : 16236,
            "type" : "SCALAR"
        },
        {
            "bufferView" : 4,
            "componentType" : 5126,
            "count" : 10888,
            "max" : [
                51.400848388671875,
                34.937705993652344,
                -0.41688448190689087
            ],
            "min" : [
                -49.63966369628906,
                -30.356487274169922,
                -154.99501037597656
            ],
            "type" : "VEC3"
        },
        {
            "bufferView" : 5,
            "componentType" : 5126,
            "count" : 10888,
            "type" : "VEC3"
        },
        {
            "bufferView" : 6,
            "componentType" : 5126,
            "count" : 10888,
            "type" : "VEC2"
        },
        {
            "bufferView" : 7,
            "componentType" : 5126,
            "count" : 10888,
            "type" : "VEC2"
        },
        {
            "bufferView" : 8,
            "componentType" : 5126,
            "count" : 10888,
            "type" : "VEC2"
        },
        {
            "bufferView" : 9,
            "componentType" : 5126,
            "count" : 10888,
            "type" : "VEC2"
        },
        {
            "bufferView" : 10,
            "componentType" : 5126,
            "count" : 10888,
            "type" : "VEC2"
        },
        {
            "bufferView" : 11,
            "componentType" : 5126,
            "count" : 10888,
            "type" : "VEC2"
        },
        {
            "bufferView" : 12,
            "componentType" : 5126,
            "count" : 10888,
            "type" : "VEC2"
        },
        {
            "bufferView" : 13,
            "componentType" : 5126,
            "count" : 10888,
            "type" : "VEC2"
        },
        {
            "bufferView" : 14,
            "componentType" : 5123,
            "count" : 10888,
            "normalized" : true,
            "type" : "VEC4"
        },
        {
            "bufferView" : 15,
            "componentType" : 5123,
            "count" : 15816,
            "type" : "SCALAR"
        }
    ],
    "bufferViews" : [
        {
            "buffer" : 0,
            "byteLength" : 47688,
            "byteOffset" : 0
        },
        {
            "buffer" : 0,
            "byteLength" : 47688,
            "byteOffset" : 47688
        },
        {
            "buffer" : 0,
            "byteLength" : 31792,
            "byteOffset" : 95376
        },
        {
            "buffer" : 0,
            "byteLength" : 32472,
            "byteOffset" : 127168
        },
        {
            "buffer" : 0,
            "byteLength" : 130656,
            "byteOffset" : 159640
        },
        {
            "buffer" : 0,
            "byteLength" : 130656,
            "byteOffset" : 290296
        },
        {
            "buffer" : 0,
            "byteLength" : 87104,
            "byteOffset" : 420952
        },
        {
            "buffer" : 0,
            "byteLength" : 87104,
            "byteOffset" : 508056
        },
        {
            "buffer" : 0,
            "byteLength" : 87104,
            "byteOffset" : 595160
        },
        {
            "buffer" : 0,
            "byteLength" : 87104,
            "byteOffset" : 682264
        },
        {
            "buffer" : 0,
            "byteLength" : 87104,
            "byteOffset" : 769368
        },
        {
            "buffer" : 0,
            "byteLength" : 87104,
            "byteOffset" : 856472
        },
        {
            "buffer" : 0,
            "byteLength" : 87104,
            "byteOffset" : 943576
        },
        {
            "buffer" : 0,
            "byteLength" : 87104,
            "byteOffset" : 1030680
        },
        {
            "buffer" : 0,
            "byteLength" : 87104,
            "byteOffset" : 1117784
        },
        {
            "buffer" : 0,
            "byteLength" : 31632,
            "byteOffset" : 1204888
        }
    ],
    "samplers" : [
        {
            "magFilter" : 9729,
            "minFilter" : 9987
        }
    ],
    "buffers" : [
        {
            "byteLength" : 1236520,
            "uri" : "legsDEF.bin"
        }
    ]
}
