{
    "asset" : {
        "generator" : "Khronos glTF Blender I/O v3.2.40",
        "version" : "2.0"
    },
    "scene" : 0,
    "scenes" : [
        {
            "name" : "Scene",
            "nodes" : [
                0,
                1
            ]
        }
    ],
    "nodes" : [
        {
            "mesh" : 0,
            "name" : "MP_DSP_Frame_Legs",
            "rotation" : [
                0.7071068286895752,
                0,
                0,
                0.7071067094802856
            ],
            "scale" : [
                0.009999999776482582,
                0.009999999776482582,
                0.009999999776482582
            ]
        },
        {
            "mesh" : 1,
            "name" : "MP_DSP_Legs",
            "rotation" : [
                0,
                0,
                -0.0871557667851448,
                0.9961947202682495
            ],
            "scale" : [
                0.0012236798647791147,
                0.0012236798647791147,
                0.0012236799811944366
            ],
            "translation" : [
                -0.4227687120437622,
                0.029020609334111214,
                -0.011273903772234917
            ]
        }
    ],
    "materials" : [
        {
            "doubleSided" : true,
            "emissiveFactor" : [
                1,
                1,
                1
            ],
            "emissiveTexture" : {
                "index" : 0
            },
            "name" : "MP_FRAME",
            "normalTexture" : {
                "index" : 1
            },
            "pbrMetallicRoughness" : {
                "baseColorTexture" : {
                    "index" : 2
                },
                "metallicRoughnessTexture" : {
                    "index" : 3
                }
            }
        },
        {
            "doubleSided" : true,
            "emissiveFactor" : [
                1,
                1,
                1
            ],
            "emissiveTexture" : {
                "index" : 4
            },
            "name" : "MP_DSP_ClassSpecific",
            "normalTexture" : {
                "index" : 5
            },
            "pbrMetallicRoughness" : {
                "baseColorTexture" : {
                    "index" : 6
                },
                "metallicRoughnessTexture" : {
                    "index" : 7
                },
                "roughnessFactor" : 0.30000001192092896
            }
        }
    ],
    "meshes" : [
        {
            "name" : "Mesh.050",
            "primitives" : [
                {
                    "attributes" : {
                        "POSITION" : 0,
                        "NORMAL" : 1,
                        "TEXCOORD_0" : 2,
                        "TEXCOORD_1" : 3,
                        "TEXCOORD_2" : 4,
                        "TEXCOORD_3" : 5,
                        "TEXCOORD_4" : 6,
                        "TEXCOORD_5" : 7,
                        "TEXCOORD_6" : 8,
                        "TEXCOORD_7" : 9,
                        "COLOR_0" : 10
                    },
                    "indices" : 11,
                    "material" : 0
                }
            ]
        },
        {
            "name" : "Mesh.049",
            "primitives" : [
                {
                    "attributes" : {
                        "POSITION" : 12,
                        "NORMAL" : 13,
                        "TEXCOORD_0" : 14
                    },
                    "indices" : 15,
                    "material" : 1
                }
            ]
        }
    ],
    "textures" : [
        {
            "sampler" : 0,
            "source" : 0
        },
        {
            "sampler" : 0,
            "source" : 1
        },
        {
            "sampler" : 0,
            "source" : 2
        },
        {
            "sampler" : 0,
            "source" : 3
        },
        {
            "sampler" : 0,
            "source" : 4
        },
        {
            "sampler" : 0,
            "source" : 5
        },
        {
            "sampler" : 0,
            "source" : 6
        },
        {
            "sampler" : 0,
            "source" : 7
        }
    ],
    "images" : [
        {
            "mimeType" : "image/jpeg",
            "name" : "MP_Frame_E",
            "uri" : "https://mechpavs.vercel.app/assets/models/textures/MP_Frame_E.jpg"
        },
        {
            "mimeType" : "image/jpeg",
            "name" : "MP_Frame_N",
            "uri" : "https://mechpavs.vercel.app/assets/models/textures/MP_Frame_N.jpg"
        },
        {
            "mimeType" : "image/jpeg",
            "name" : "MP_Frame_A",
            "uri" : "https://mechpavs.vercel.app/assets/models/textures/MP_Frame_A.jpg"
        },
        {
            "mimeType" : "image/png",
            "name" : "MP_Frame_M-MP_Frame_R",
            "uri" : "https://mechpavs.vercel.app/assets/models/textures/MP_Frame_M-MP_Frame_R.png"
        },
        {
            "mimeType" : "image/jpeg",
            "name" : "MP_DSP_ClassSpecific_E",
            "uri" : "https://mechpavs.vercel.app/assets/models/textures/MP_DSP_ClassSpecific_E.jpg"
        },
        {
            "mimeType" : "image/jpeg",
            "name" : "MP_DSP_ClassSpecific_N",
            "uri" : "https://mechpavs.vercel.app/assets/models/textures/MP_DSP_ClassSpecific_N.jpg"
        },
        {
            "mimeType" : "image/jpeg",
            "name" : "MP_DSP_ClassSpecific_A",
            "uri" : "https://mechpavs.vercel.app/assets/models/textures/MP_DSP_ClassSpecific_A.jpg"
        },
        {
            "mimeType" : "image/png",
            "name" : "MP_DSP_ClassSpecific_M",
            "uri" : "https://mechpavs.vercel.app/assets/models/textures/MP_DSP_ClassSpecific_M.png"
        }
    ],
    "accessors" : [
        {
            "bufferView" : 0,
            "componentType" : 5126,
            "count" : 7400,
            "max" : [
                51.400848388671875,
                34.937705993652344,
                -0.41688448190689087
            ],
            "min" : [
                -49.63966369628906,
                -30.356487274169922,
                -138.81007385253906
            ],
            "type" : "VEC3"
        },
        {
            "bufferView" : 1,
            "componentType" : 5126,
            "count" : 7400,
            "type" : "VEC3"
        },
        {
            "bufferView" : 2,
            "componentType" : 5126,
            "count" : 7400,
            "type" : "VEC2"
        },
        {
            "bufferView" : 3,
            "componentType" : 5126,
            "count" : 7400,
            "type" : "VEC2"
        },
        {
            "bufferView" : 4,
            "componentType" : 5126,
            "count" : 7400,
            "type" : "VEC2"
        },
        {
            "bufferView" : 5,
            "componentType" : 5126,
            "count" : 7400,
            "type" : "VEC2"
        },
        {
            "bufferView" : 6,
            "componentType" : 5126,
            "count" : 7400,
            "type" : "VEC2"
        },
        {
            "bufferView" : 7,
            "componentType" : 5126,
            "count" : 7400,
            "type" : "VEC2"
        },
        {
            "bufferView" : 8,
            "componentType" : 5126,
            "count" : 7400,
            "type" : "VEC2"
        },
        {
            "bufferView" : 9,
            "componentType" : 5126,
            "count" : 7400,
            "type" : "VEC2"
        },
        {
            "bufferView" : 10,
            "componentType" : 5123,
            "count" : 7400,
            "normalized" : true,
            "type" : "VEC4"
        },
        {
            "bufferView" : 11,
            "componentType" : 5123,
            "count" : 10656,
            "type" : "SCALAR"
        },
        {
            "bufferView" : 12,
            "componentType" : 5126,
            "count" : 5820,
            "max" : [
                784.2301025390625,
                1321.2086181640625,
                321.0482482910156
            ],
            "min" : [
                -153.8450164794922,
                -28.586217880249023,
                -298.2066345214844
            ],
            "type" : "VEC3"
        },
        {
            "bufferView" : 13,
            "componentType" : 5126,
            "count" : 5820,
            "type" : "VEC3"
        },
        {
            "bufferView" : 14,
            "componentType" : 5126,
            "count" : 5820,
            "type" : "VEC2"
        },
        {
            "bufferView" : 15,
            "componentType" : 5123,
            "count" : 27162,
            "type" : "SCALAR"
        }
    ],
    "bufferViews" : [
        {
            "buffer" : 0,
            "byteLength" : 88800,
            "byteOffset" : 0
        },
        {
            "buffer" : 0,
            "byteLength" : 88800,
            "byteOffset" : 88800
        },
        {
            "buffer" : 0,
            "byteLength" : 59200,
            "byteOffset" : 177600
        },
        {
            "buffer" : 0,
            "byteLength" : 59200,
            "byteOffset" : 236800
        },
        {
            "buffer" : 0,
            "byteLength" : 59200,
            "byteOffset" : 296000
        },
        {
            "buffer" : 0,
            "byteLength" : 59200,
            "byteOffset" : 355200
        },
        {
            "buffer" : 0,
            "byteLength" : 59200,
            "byteOffset" : 414400
        },
        {
            "buffer" : 0,
            "byteLength" : 59200,
            "byteOffset" : 473600
        },
        {
            "buffer" : 0,
            "byteLength" : 59200,
            "byteOffset" : 532800
        },
        {
            "buffer" : 0,
            "byteLength" : 59200,
            "byteOffset" : 592000
        },
        {
            "buffer" : 0,
            "byteLength" : 59200,
            "byteOffset" : 651200
        },
        {
            "buffer" : 0,
            "byteLength" : 21312,
            "byteOffset" : 710400
        },
        {
            "buffer" : 0,
            "byteLength" : 69840,
            "byteOffset" : 731712
        },
        {
            "buffer" : 0,
            "byteLength" : 69840,
            "byteOffset" : 801552
        },
        {
            "buffer" : 0,
            "byteLength" : 46560,
            "byteOffset" : 871392
        },
        {
            "buffer" : 0,
            "byteLength" : 54324,
            "byteOffset" : 917952
        }
    ],
    "samplers" : [
        {
            "magFilter" : 9729,
            "minFilter" : 9987
        }
    ],
    "buffers" : [
        {
            "byteLength" : 972276,
            "uri" : "legsDSP.bin"
        }
    ]
}
