{
    "asset" : {
        "generator" : "Khronos glTF Blender I/O v3.2.40",
        "version" : "2.0"
    },
    "scene" : 0,
    "scenes" : [
        {
            "name" : "Scene",
            "nodes" : [
                0,
                1,
                2,
                3,
                4
            ]
        }
    ],
    "nodes" : [
        {
            "mesh" : 0,
            "name" : "MP_DEF_Torso",
            "scale" : [
                0.0012565100332722068,
                0.0012565100332722068,
                0.0012565100332722068
            ]
        },
        {
            "mesh" : 1,
            "name" : "MP_DEF_Cockpit_Glass",
            "scale" : [
                0.009999999776482582,
                0.009999999776482582,
                0.009999999776482582
            ],
            "translation" : [
                0,
                1.9904882907867432,
                0.20931285619735718
            ]
        },
        {
            "mesh" : 2,
            "name" : "MP_DEF_Frame_Torso",
            "rotation" : [
                0.7071068286895752,
                0,
                0,
                0.7071067094802856
            ],
            "scale" : [
                0.009999999776482582,
                0.009999999776482582,
                0.009999999776482582
            ]
        },
        {
            "mesh" : 3,
            "name" : "MARV_Capsule_Body"
        },
        {
            "mesh" : 4,
            "name" : "MARV_Capsule_Glass"
        }
    ],
    "materials" : [
        {
            "doubleSided" : true,
            "emissiveFactor" : [
                1,
                1,
                1
            ],
            "emissiveTexture" : {
                "index" : 0
            },
            "name" : "MP_DEF_ClassSpecific",
            "normalTexture" : {
                "index" : 1
            },
            "pbrMetallicRoughness" : {
                "baseColorTexture" : {
                    "index" : 2
                },
                "metallicRoughnessTexture" : {
                    "index" : 3
                },
                "roughnessFactor" : 0.20000000298023224
            }
        },
        {
            "alphaMode" : "BLEND",
            "doubleSided" : true,
            "name" : "MP_DEF_Glass",
            "normalTexture" : {
                "index" : 4
            },
            "pbrMetallicRoughness" : {
                "baseColorTexture" : {
                    "index" : 5
                },
                "metallicRoughnessTexture" : {
                    "index" : 6
                }
            }
        },
        {
            "doubleSided" : true,
            "emissiveFactor" : [
                1,
                1,
                1
            ],
            "emissiveTexture" : {
                "index" : 7
            },
            "name" : "MP_FRAME",
            "normalTexture" : {
                "index" : 8
            },
            "pbrMetallicRoughness" : {
                "baseColorTexture" : {
                    "index" : 9
                },
                "metallicRoughnessTexture" : {
                    "index" : 10
                }
            }
        },
        {
            "doubleSided" : true,
            "name" : "MP_CAPSULE",
            "normalTexture" : {
                "index" : 11
            },
            "pbrMetallicRoughness" : {
                "baseColorTexture" : {
                    "index" : 12
                },
                "metallicRoughnessTexture" : {
                    "index" : 13
                },
                "roughnessFactor" : 0.5
            }
        }
    ],
    "meshes" : [
        {
            "name" : "Mesh.007",
            "primitives" : [
                {
                    "attributes" : {
                        "POSITION" : 0,
                        "NORMAL" : 1,
                        "TEXCOORD_0" : 2,
                        "COLOR_0" : 3
                    },
                    "indices" : 4,
                    "material" : 0
                }
            ]
        },
        {
            "name" : "Mesh.008",
            "primitives" : [
                {
                    "attributes" : {
                        "POSITION" : 5,
                        "NORMAL" : 6,
                        "TEXCOORD_0" : 7,
                        "COLOR_0" : 8
                    },
                    "indices" : 9,
                    "material" : 1
                }
            ]
        },
        {
            "name" : "Mesh.011",
            "primitives" : [
                {
                    "attributes" : {
                        "POSITION" : 10,
                        "NORMAL" : 11,
                        "TEXCOORD_0" : 12,
                        "TEXCOORD_1" : 13,
                        "TEXCOORD_2" : 14,
                        "TEXCOORD_3" : 15,
                        "TEXCOORD_4" : 16,
                        "TEXCOORD_5" : 17,
                        "TEXCOORD_6" : 18,
                        "TEXCOORD_7" : 19,
                        "COLOR_0" : 20
                    },
                    "indices" : 21,
                    "material" : 2
                }
            ]
        },
        {
            "name" : "Mesh.009",
            "primitives" : [
                {
                    "attributes" : {
                        "POSITION" : 22,
                        "NORMAL" : 23,
                        "TEXCOORD_0" : 24
                    },
                    "indices" : 25,
                    "material" : 3
                }
            ]
        },
        {
            "name" : "Mesh.010",
            "primitives" : [
                {
                    "attributes" : {
                        "POSITION" : 26,
                        "NORMAL" : 27,
                        "TEXCOORD_0" : 28
                    },
                    "indices" : 29,
                    "material" : 3
                }
            ]
        }
    ],
    "textures" : [
        {
            "sampler" : 0,
            "source" : 0
        },
        {
            "sampler" : 0,
            "source" : 1
        },
        {
            "sampler" : 0,
            "source" : 2
        },
        {
            "sampler" : 0,
            "source" : 3
        },
        {
            "sampler" : 0,
            "source" : 4
        },
        {
            "sampler" : 0,
            "source" : 5
        },
        {
            "sampler" : 0,
            "source" : 6
        },
        {
            "sampler" : 0,
            "source" : 7
        },
        {
            "sampler" : 0,
            "source" : 8
        },
        {
            "sampler" : 0,
            "source" : 9
        },
        {
            "sampler" : 0,
            "source" : 10
        },
        {
            "sampler" : 0,
            "source" : 11
        },
        {
            "sampler" : 0,
            "source" : 12
        },
        {
            "sampler" : 0,
            "source" : 13
        }
    ],
    "images" : [
        {
            "mimeType" : "image/jpeg",
            "name" : "MP_DEF_ClassSpecific_E",
            "uri" : "https://mechpavs.vercel.app/assets/models/textures/MP_DEF_ClassSpecific_E.jpg"
        },
        {
            "mimeType" : "image/jpeg",
            "name" : "MP_DEF_ClassSpecific_N",
            "uri" : "https://mechpavs.vercel.app/assets/models/textures/MP_DEF_ClassSpecific_N.jpg"
        },
        {
            "mimeType" : "image/jpeg",
            "name" : "MP_DEF_ClassSpecific_A",
            "uri" : "https://mechpavs.vercel.app/assets/models/textures/MP_DEF_ClassSpecific_A.jpg"
        },
        {
            "mimeType" : "image/png",
            "name" : "MP_DEF_ClassSpecific_M",
            "uri" : "https://mechpavs.vercel.app/assets/models/textures/MP_DEF_ClassSpecific_M.png"
        },
        {
            "mimeType" : "image/jpeg",
            "name" : "MP_DEF_ClassSpecific_Glass_N",
            "uri" : "https://mechpavs.vercel.app/assets/models/textures/MP_DEF_ClassSpecific_Glass_N.jpg"
        },
        {
            "mimeType" : "image/png",
            "name" : "MP_DEF_ClassSpecific_Glass_A-MP_DEF_ClassSpecific_Glass_T",
            "uri" : "https://mechpavs.vercel.app/assets/models/textures/MP_DEF_ClassSpecific_Glass_A-MP_DEF_ClassSpecific_Glass_T.png"
        },
        {
            "mimeType" : "image/png",
            "name" : "MP_DEF_ClassSpecific_Glass_M-MP_DEF_ClassSpecific_Glass_R",
            "uri" : "https://mechpavs.vercel.app/assets/models/textures/MP_DEF_ClassSpecific_Glass_M-MP_DEF_ClassSpecific_Glass_R.png"
        },
        {
            "mimeType" : "image/jpeg",
            "name" : "MP_Frame_E",
            "uri" : "https://mechpavs.vercel.app/assets/models/textures/MP_Frame_E.jpg"
        },
        {
            "mimeType" : "image/jpeg",
            "name" : "MP_Frame_N",
            "uri" : "https://mechpavs.vercel.app/assets/models/textures/MP_Frame_N.jpg"
        },
        {
            "mimeType" : "image/jpeg",
            "name" : "MP_Frame_A",
            "uri" : "https://mechpavs.vercel.app/assets/models/textures/MP_Frame_A.jpg"
        },
        {
            "mimeType" : "image/png",
            "name" : "MP_Frame_M-MP_Frame_R",
            "uri" : "https://mechpavs.vercel.app/assets/models/textures/MP_Frame_M-MP_Frame_R.png"
        },
        {
            "mimeType" : "image/jpeg",
            "name" : "MP_Capsule_N",
            "uri" : "https://mechpavs.vercel.app/assets/models/textures/MP_Capsule_N.jpg"
        },
        {
            "mimeType" : "image/png",
            "name" : "MP_Capsule_A-MP_Capsule_T",
            "uri" : "https://mechpavs.vercel.app/assets/models/textures/MP_Capsule_A-MP_Capsule_T.png"
        },
        {
            "mimeType" : "image/png",
            "name" : "MP_Capsule_M",
            "uri" : "https://mechpavs.vercel.app/assets/models/textures/MP_Capsule_M.png"
        }
    ],
    "accessors" : [
        {
            "bufferView" : 0,
            "componentType" : 5126,
            "count" : 4285,
            "max" : [
                244.64833068847656,
                1958.543701171875,
                221.60076904296875
            ],
            "min" : [
                -244.64892578125,
                1042.51611328125,
                -197.79307556152344
            ],
            "type" : "VEC3"
        },
        {
            "bufferView" : 1,
            "componentType" : 5126,
            "count" : 4285,
            "type" : "VEC3"
        },
        {
            "bufferView" : 2,
            "componentType" : 5126,
            "count" : 4285,
            "type" : "VEC2"
        },
        {
            "bufferView" : 3,
            "componentType" : 5123,
            "count" : 4285,
            "normalized" : true,
            "type" : "VEC4"
        },
        {
            "bufferView" : 4,
            "componentType" : 5123,
            "count" : 19635,
            "type" : "SCALAR"
        },
        {
            "bufferView" : 5,
            "componentType" : 5126,
            "count" : 119,
            "max" : [
                17.373584747314453,
                15.451831817626953,
                8.118350982666016
            ],
            "min" : [
                -16.94486427307129,
                -15.345511436462402,
                -3.0772767066955566
            ],
            "type" : "VEC3"
        },
        {
            "bufferView" : 6,
            "componentType" : 5126,
            "count" : 119,
            "type" : "VEC3"
        },
        {
            "bufferView" : 7,
            "componentType" : 5126,
            "count" : 119,
            "type" : "VEC2"
        },
        {
            "bufferView" : 8,
            "componentType" : 5123,
            "count" : 119,
            "normalized" : true,
            "type" : "VEC4"
        },
        {
            "bufferView" : 9,
            "componentType" : 5123,
            "count" : 582,
            "type" : "SCALAR"
        },
        {
            "bufferView" : 10,
            "componentType" : 5126,
            "count" : 17828,
            "max" : [
                32.44817352294922,
                18.061111450195312,
                -135.85073852539062
            ],
            "min" : [
                -32.44817352294922,
                -13.556523323059082,
                -226.8215789794922
            ],
            "type" : "VEC3"
        },
        {
            "bufferView" : 11,
            "componentType" : 5126,
            "count" : 17828,
            "type" : "VEC3"
        },
        {
            "bufferView" : 12,
            "componentType" : 5126,
            "count" : 17828,
            "type" : "VEC2"
        },
        {
            "bufferView" : 13,
            "componentType" : 5126,
            "count" : 17828,
            "type" : "VEC2"
        },
        {
            "bufferView" : 14,
            "componentType" : 5126,
            "count" : 17828,
            "type" : "VEC2"
        },
        {
            "bufferView" : 15,
            "componentType" : 5126,
            "count" : 17828,
            "type" : "VEC2"
        },
        {
            "bufferView" : 16,
            "componentType" : 5126,
            "count" : 17828,
            "type" : "VEC2"
        },
        {
            "bufferView" : 17,
            "componentType" : 5126,
            "count" : 17828,
            "type" : "VEC2"
        },
        {
            "bufferView" : 18,
            "componentType" : 5126,
            "count" : 17828,
            "type" : "VEC2"
        },
        {
            "bufferView" : 19,
            "componentType" : 5126,
            "count" : 17828,
            "type" : "VEC2"
        },
        {
            "bufferView" : 20,
            "componentType" : 5123,
            "count" : 17828,
            "normalized" : true,
            "type" : "VEC4"
        },
        {
            "bufferView" : 21,
            "componentType" : 5123,
            "count" : 25956,
            "type" : "SCALAR"
        },
        {
            "bufferView" : 22,
            "componentType" : 5126,
            "count" : 4102,
            "max" : [
                0.15172076225280762,
                2.109302282333374,
                0.15370947122573853
            ],
            "min" : [
                -0.15172076225280762,
                1.8258706331253052,
                -0.103023000061512
            ],
            "type" : "VEC3"
        },
        {
            "bufferView" : 23,
            "componentType" : 5126,
            "count" : 4102,
            "type" : "VEC3"
        },
        {
            "bufferView" : 24,
            "componentType" : 5126,
            "count" : 4102,
            "type" : "VEC2"
        },
        {
            "bufferView" : 25,
            "componentType" : 5123,
            "count" : 4176,
            "type" : "SCALAR"
        },
        {
            "bufferView" : 26,
            "componentType" : 5126,
            "count" : 648,
            "max" : [
                0.09418857097625732,
                2.102006673812866,
                0.16202622652053833
            ],
            "min" : [
                -0.09441427141427994,
                1.8486696481704712,
                -0.08230672776699066
            ],
            "type" : "VEC3"
        },
        {
            "bufferView" : 27,
            "componentType" : 5126,
            "count" : 648,
            "type" : "VEC3"
        },
        {
            "bufferView" : 28,
            "componentType" : 5126,
            "count" : 648,
            "type" : "VEC2"
        },
        {
            "bufferView" : 29,
            "componentType" : 5123,
            "count" : 648,
            "type" : "SCALAR"
        }
    ],
    "bufferViews" : [
        {
            "buffer" : 0,
            "byteLength" : 51420,
            "byteOffset" : 0
        },
        {
            "buffer" : 0,
            "byteLength" : 51420,
            "byteOffset" : 51420
        },
        {
            "buffer" : 0,
            "byteLength" : 34280,
            "byteOffset" : 102840
        },
        {
            "buffer" : 0,
            "byteLength" : 34280,
            "byteOffset" : 137120
        },
        {
            "buffer" : 0,
            "byteLength" : 39270,
            "byteOffset" : 171400
        },
        {
            "buffer" : 0,
            "byteLength" : 1428,
            "byteOffset" : 210672
        },
        {
            "buffer" : 0,
            "byteLength" : 1428,
            "byteOffset" : 212100
        },
        {
            "buffer" : 0,
            "byteLength" : 952,
            "byteOffset" : 213528
        },
        {
            "buffer" : 0,
            "byteLength" : 952,
            "byteOffset" : 214480
        },
        {
            "buffer" : 0,
            "byteLength" : 1164,
            "byteOffset" : 215432
        },
        {
            "buffer" : 0,
            "byteLength" : 213936,
            "byteOffset" : 216596
        },
        {
            "buffer" : 0,
            "byteLength" : 213936,
            "byteOffset" : 430532
        },
        {
            "buffer" : 0,
            "byteLength" : 142624,
            "byteOffset" : 644468
        },
        {
            "buffer" : 0,
            "byteLength" : 142624,
            "byteOffset" : 787092
        },
        {
            "buffer" : 0,
            "byteLength" : 142624,
            "byteOffset" : 929716
        },
        {
            "buffer" : 0,
            "byteLength" : 142624,
            "byteOffset" : 1072340
        },
        {
            "buffer" : 0,
            "byteLength" : 142624,
            "byteOffset" : 1214964
        },
        {
            "buffer" : 0,
            "byteLength" : 142624,
            "byteOffset" : 1357588
        },
        {
            "buffer" : 0,
            "byteLength" : 142624,
            "byteOffset" : 1500212
        },
        {
            "buffer" : 0,
            "byteLength" : 142624,
            "byteOffset" : 1642836
        },
        {
            "buffer" : 0,
            "byteLength" : 142624,
            "byteOffset" : 1785460
        },
        {
            "buffer" : 0,
            "byteLength" : 51912,
            "byteOffset" : 1928084
        },
        {
            "buffer" : 0,
            "byteLength" : 49224,
            "byteOffset" : 1979996
        },
        {
            "buffer" : 0,
            "byteLength" : 49224,
            "byteOffset" : 2029220
        },
        {
            "buffer" : 0,
            "byteLength" : 32816,
            "byteOffset" : 2078444
        },
        {
            "buffer" : 0,
            "byteLength" : 8352,
            "byteOffset" : 2111260
        },
        {
            "buffer" : 0,
            "byteLength" : 7776,
            "byteOffset" : 2119612
        },
        {
            "buffer" : 0,
            "byteLength" : 7776,
            "byteOffset" : 2127388
        },
        {
            "buffer" : 0,
            "byteLength" : 5184,
            "byteOffset" : 2135164
        },
        {
            "buffer" : 0,
            "byteLength" : 1296,
            "byteOffset" : 2140348
        }
    ],
    "samplers" : [
        {
            "magFilter" : 9729,
            "minFilter" : 9987
        }
    ],
    "buffers" : [
        {
            "byteLength" : 2141644,
            "uri" : "torsoDEF.bin"
        }
    ]
}
