{
    "asset": {
        "generator": "FBX2glTF v0.9.7",
        "version": "2.0"
    },
    "scene": 0,
    "buffers": [
        {
            "byteLength": 706720,
            "uri": "buffer.bin"
        }
    ],
    "bufferViews": [
        {
            "buffer": 0,
            "byteLength": 84012,
            "byteOffset": 0,
            "target": 34963
        },
        {
            "buffer": 0,
            "byteLength": 128496,
            "byteOffset": 84012,
            "target": 34962
        },
        {
            "buffer": 0,
            "byteLength": 128496,
            "byteOffset": 212508,
            "target": 34962
        },
        {
            "buffer": 0,
            "byteLength": 85664,
            "byteOffset": 341004,
            "target": 34962
        },
        {
            "buffer": 0,
            "byteLength": 17364,
            "byteOffset": 426668,
            "target": 34963
        },
        {
            "buffer": 0,
            "byteLength": 96792,
            "byteOffset": 444032,
            "target": 34962
        },
        {
            "buffer": 0,
            "byteLength": 96792,
            "byteOffset": 540824,
            "target": 34962
        },
        {
            "buffer": 0,
            "byteLength": 64528,
            "byteOffset": 637616,
            "target": 34962
        },
        {
            "buffer": 0,
            "byteLength": 480,
            "byteOffset": 702144,
            "target": 34963
        },
        {
            "buffer": 0,
            "byteLength": 1536,
            "byteOffset": 702624,
            "target": 34962
        },
        {
            "buffer": 0,
            "byteLength": 1536,
            "byteOffset": 704160,
            "target": 34962
        },
        {
            "buffer": 0,
            "byteLength": 1024,
            "byteOffset": 705696,
            "target": 34962
        }
    ],
    "scenes": [
        {
            "name": "Root Scene",
            "nodes": [
                0
            ]
        }
    ],
    "accessors": [
        {
            "componentType": 5123,
            "type": "SCALAR",
            "count": 42006,
            "bufferView": 0,
            "byteOffset": 0
        },
        {
            "componentType": 5126,
            "type": "VEC3",
            "count": 10708,
            "bufferView": 1,
            "byteOffset": 0,
            "min": [
                -0.969982326030731,
                -0.969982326030731,
                -1.18394386768341
            ],
            "max": [
                0.969982326030731,
                1.12745499610901,
                0.430971264839172
            ]
        },
        {
            "componentType": 5126,
            "type": "VEC3",
            "count": 10708,
            "bufferView": 2,
            "byteOffset": 0
        },
        {
            "componentType": 5126,
            "type": "VEC2",
            "count": 10708,
            "bufferView": 3,
            "byteOffset": 0
        },
        {
            "componentType": 5123,
            "type": "SCALAR",
            "count": 8682,
            "bufferView": 4,
            "byteOffset": 0
        },
        {
            "componentType": 5126,
            "type": "VEC3",
            "count": 8066,
            "bufferView": 5,
            "byteOffset": 0,
            "min": [
                -0.469818323850632,
                -0.280000597238541,
                -0.116840943694115
            ],
            "max": [
                0.280000448226929,
                0.280000329017639,
                0.00452076969668269
            ]
        },
        {
            "componentType": 5126,
            "type": "VEC3",
            "count": 8066,
            "bufferView": 6,
            "byteOffset": 0
        },
        {
            "componentType": 5126,
            "type": "VEC2",
            "count": 8066,
            "bufferView": 7,
            "byteOffset": 0
        },
        {
            "componentType": 5123,
            "type": "SCALAR",
            "count": 240,
            "bufferView": 8,
            "byteOffset": 0
        },
        {
            "componentType": 5126,
            "type": "VEC3",
            "count": 128,
            "bufferView": 9,
            "byteOffset": 0,
            "min": [
                -0.785623371601105,
                -0.78562331199646,
                -0.151583060622215
            ],
            "max": [
                0.78562331199646,
                0.78562331199646,
                -0.12718953192234
            ]
        },
        {
            "componentType": 5126,
            "type": "VEC3",
            "count": 128,
            "bufferView": 10,
            "byteOffset": 0
        },
        {
            "componentType": 5126,
            "type": "VEC2",
            "count": 128,
            "bufferView": 11,
            "byteOffset": 0
        }
    ],
    "samplers": [
        {}
    ],
    "materials": [
        {
            "name": "Base",
            "alphaMode": "OPAQUE",
            "extras": {
                "fromFBX": {
                    "shadingModel": "Phong",
                    "isTruePBR": false
                }
            },
            "pbrMetallicRoughness": {
                "baseColorFactor": [
                    0.800000011920929,
                    0.800000011920929,
                    0.800000011920929,
                    1.0
                ],
                "metallicFactor": 0.400000005960464,
                "roughnessFactor": 0.229415729641914
            }
        },
        {
            "name": "Colour_02",
            "alphaMode": "OPAQUE",
            "extras": {
                "fromFBX": {
                    "shadingModel": "Phong",
                    "isTruePBR": false
                }
            },
            "pbrMetallicRoughness": {
                "baseColorFactor": [
                    0.178861171007156,
                    0.178861171007156,
                    0.178861171007156,
                    1.0
                ],
                "metallicFactor": 0.400000005960464,
                "roughnessFactor": 0.272165536880493
            }
        },
        {
            "name": "Emissive",
            "alphaMode": "OPAQUE",
            "extras": {
                "fromFBX": {
                    "shadingModel": "Phong",
                    "isTruePBR": false
                }
            },
            "emissiveFactor": [
                1.0,
                1.0,
                1.0
            ],
            "pbrMetallicRoughness": {
                "baseColorFactor": [
                    0.800000011920929,
                    0.800000011920929,
                    0.800000011920929,
                    1.0
                ],
                "metallicFactor": 0.400000005960464,
                "roughnessFactor": 0.272165536880493
            }
        }
    ],
    "meshes": [
        {
            "name": "Mech_Platform",
            "primitives": [
                {
                    "material": 0,
                    "mode": 4,
                    "attributes": {
                        "NORMAL": 2,
                        "POSITION": 1,
                        "TEXCOORD_0": 3
                    },
                    "indices": 0
                },
                {
                    "material": 1,
                    "mode": 4,
                    "attributes": {
                        "NORMAL": 6,
                        "POSITION": 5,
                        "TEXCOORD_0": 7
                    },
                    "indices": 4
                },
                {
                    "material": 2,
                    "mode": 4,
                    "attributes": {
                        "NORMAL": 10,
                        "POSITION": 9,
                        "TEXCOORD_0": 11
                    },
                    "indices": 8
                }
            ]
        }
    ],
    "nodes": [
        {
            "name": "RootNode",
            "translation": [
                0.0,
                0.0,
                0.0
            ],
            "rotation": [
                0.0,
                0.0,
                0.0,
                1.0
            ],
            "scale": [
                1.0,
                1.0,
                1.0
            ],
            "children": [
                1
            ]
        },
        {
            "name": "Mech_Platform",
            "translation": [
                0.0,
                1.49011611938477e-08,
                0.0
            ],
            "rotation": [
                -0.0308436118066311,
                0.706433773040771,
                0.706433773040771,
                0.0308436118066311
            ],
            "scale": [
                100.0,
                100.0,
                100.0
            ],
            "mesh": 0
        }
    ]
}