{
    "asset" : {
        "generator" : "Khronos glTF Blender I/O v3.2.40",
        "version" : "2.0"
    },
    "scene" : 0,
    "scenes" : [
        {
            "name" : "Scene",
            "nodes" : [
                0
            ]
        }
    ],
    "nodes" : [
        {
            "mesh" : 0,
            "name" : "MP_DEF_Backpack",
            "scale" : [
                0.0012565100332722068,
                0.0012565100332722068,
                0.0012565100332722068
            ],
            "translation" : [
                0,
                1.9953759908676147,
                -0.5301564931869507
            ]
        }
    ],
    "materials" : [
        {
            "doubleSided" : true,
            "emissiveFactor" : [
                1,
                1,
                1
            ],
            "emissiveTexture" : {
                "index" : 0
            },
            "name" : "MP_DEF_ClassSpecific",
            "normalTexture" : {
                "index" : 1
            },
            "pbrMetallicRoughness" : {
                "baseColorTexture" : {
                    "index" : 2
                },
                "metallicRoughnessTexture" : {
                    "index" : 3
                },
                "roughnessFactor" : 0.20000000298023224
            }
        }
    ],
    "meshes" : [
        {
            "name" : "Mesh.004",
            "primitives" : [
                {
                    "attributes" : {
                        "POSITION" : 0,
                        "NORMAL" : 1,
                        "TEXCOORD_0" : 2
                    },
                    "indices" : 3,
                    "material" : 0
                }
            ]
        }
    ],
    "textures" : [
        {
            "sampler" : 0,
            "source" : 0
        },
        {
            "sampler" : 0,
            "source" : 1
        },
        {
            "sampler" : 0,
            "source" : 2
        },
        {
            "sampler" : 0,
            "source" : 3
        }
    ],
    "images" : [
        {
            "mimeType" : "image/jpeg",
            "name" : "MP_DEF_ClassSpecific_E",
            "uri" : "https://mechpavs.vercel.app/assets/models/textures/MP_DEF_ClassSpecific_E.jpg"
        },
        {
            "mimeType" : "image/jpeg",
            "name" : "MP_DEF_ClassSpecific_N",
            "uri" : "https://mechpavs.vercel.app/assets/models/textures/MP_DEF_ClassSpecific_N.jpg"
        },
        {
            "mimeType" : "image/jpeg",
            "name" : "MP_DEF_ClassSpecific_A",
            "uri" : "https://mechpavs.vercel.app/assets/models/textures/MP_DEF_ClassSpecific_A.jpg"
        },
        {
            "mimeType" : "image/png",
            "name" : "MP_DEF_ClassSpecific_M",
            "uri" : "https://mechpavs.vercel.app/assets/models/textures/MP_DEF_ClassSpecific_M.png"
        }
    ],
    "accessors" : [
        {
            "bufferView" : 0,
            "componentType" : 5126,
            "count" : 5391,
            "max" : [
                238.6747283935547,
                232.4318389892578,
                285.60821533203125
            ],
            "min" : [
                -238.6747283935547,
                -251.07423400878906,
                -247.41131591796875
            ],
            "type" : "VEC3"
        },
        {
            "bufferView" : 1,
            "componentType" : 5126,
            "count" : 5391,
            "type" : "VEC3"
        },
        {
            "bufferView" : 2,
            "componentType" : 5126,
            "count" : 5391,
            "type" : "VEC2"
        },
        {
            "bufferView" : 3,
            "componentType" : 5123,
            "count" : 23556,
            "type" : "SCALAR"
        }
    ],
    "bufferViews" : [
        {
            "buffer" : 0,
            "byteLength" : 64692,
            "byteOffset" : 0
        },
        {
            "buffer" : 0,
            "byteLength" : 64692,
            "byteOffset" : 64692
        },
        {
            "buffer" : 0,
            "byteLength" : 43128,
            "byteOffset" : 129384
        },
        {
            "buffer" : 0,
            "byteLength" : 47112,
            "byteOffset" : 172512
        }
    ],
    "samplers" : [
        {
            "magFilter" : 9729,
            "minFilter" : 9987
        }
    ],
    "buffers" : [
        {
            "byteLength" : 219624,
            "uri" : "backpackDEF.bin"
        }
    ]
}
