<?xml version="1.0" encoding="utf-8"?>
<!-- Generator: Adobe Illustrator 25.4.1, SVG Export Plug-In . SVG Version: 6.00 Build 0)  -->
<svg version="1.1" id="Layer_1" xmlns="http://www.w3.org/2000/svg" xmlns:xlink="http://www.w3.org/1999/xlink" x="0px" y="0px"
	 viewBox="0 0 40.1 34.5" style="enable-background:new 0 0 40.1 34.5;" xml:space="preserve">
<g>
	<g>
		<g>
			<defs>
				<path id="SVGID_1_" d="M14.4,34.5c-8.3,0-11.7-4.6-14.2-8c-0.1-0.1-0.1-0.2-0.2-0.3C0,26.1,0,25.9,0,25.8c0-0.2,0-0.4,0.1-0.5
					c0.1-0.2,0.2-0.3,0.3-0.4c0.1-0.1,0.2-0.2,0.4-0.2c0.1,0,0.1,0,0.2-0.1c0.3-0.1,2-0.7,3.8-1.3C-0.6,16.7-1,7.4,4,0.5
					C4.2,0.2,4.7,0,5.1,0c0.4,0,0.8,0.3,1,0.7c2.1,3.9,5.5,7,9.1,8.3c0.8-5.4,5-9,10.5-9c3.6,0,6.3,1.2,8.2,3.8h5
					c0.5,0,0.9,0.3,1.1,0.7c0.2,0.4,0.2,0.9-0.1,1.3L36.4,11C36.2,25.3,27.6,34.5,14.4,34.5z M3.3,26.3C5.5,29.2,8.4,32,14.4,32
					c12,0,19.4-8.2,19.4-21.3c0-0.1,0-0.3,0.1-0.4c0-0.1,0.1-0.2,0.2-0.3l2.5-3.7h-3.3c-0.4,0-0.8-0.2-1-0.6
					c-1.5-2.2-3.5-3.2-6.5-3.2c-4.7,0-8,3.3-8.2,8.2c0,0.4-0.2,0.7-0.5,1c-0.3,0.2-0.7,0.3-1.1,0.2c-4.1-1-8.3-4.1-11-8.2
					c-3.5,6.3-2.5,14,2.8,19.3c0.3,0.3,0.4,0.7,0.3,1.2S7.7,24.9,7.3,25C5.4,25.6,4.1,26.1,3.3,26.3z"/>
			</defs>
			<use xlink:href="#SVGID_1_"  style="overflow:visible;fill:#FFFFFF;"/>
			<clipPath id="SVGID_00000085218986834348475700000006584548435318565794_">
				<use xlink:href="#SVGID_1_"  style="overflow:visible;"/>
			</clipPath>
		</g>
	</g>
</g>
</svg>
