<?xml version="1.0" encoding="utf-8"?>
<!-- Generator: Adobe Illustrator 25.4.1, SVG Export Plug-In . SVG Version: 6.00 Build 0)  -->
<svg version="1.1" id="Layer_1" xmlns="http://www.w3.org/2000/svg" xmlns:xlink="http://www.w3.org/1999/xlink" x="0px" y="0px"
	 viewBox="0 0 55 40.6" style="enable-background:new 0 0 55 40.6;" xml:space="preserve">
<style type="text/css">
	.st0{fill:#FFFFFF;}
</style>
<path class="st0" d="M20.2,0c0,0-7.6,0.5-12.6,4.5c0,0-0.1,0-0.1,0C6.7,5.4,6,6.6,5.2,8.4S3.6,12.4,2.8,15C1.3,20.1,0,26.4,0,32.3
	c0,0.2,0,0.4,0.1,0.6c1.7,3.1,5,4.9,8,6.1c3,1.2,5.8,1.6,7.2,1.7c0.4,0,0.8-0.2,1-0.5l2.9-4c2.3,0.6,5.1,0.9,8.3,0.9
	s5.9-0.4,8.3-0.9l2.9,4c0.2,0.3,0.6,0.5,1,0.5c1.4,0,4.2-0.5,7.2-1.7c3-1.2,6.2-3,8-6.1c0.1-0.2,0.2-0.4,0.1-0.6
	c0-5.9-1.3-12.2-2.8-17.3c-0.8-2.6-1.6-4.8-2.4-6.6s-1.5-3-2.3-3.8c0,0-0.1,0-0.1,0c-5-4-12.6-4.5-12.6-4.5c-0.1,0-0.2,0-0.3,0
	c-0.4,0.1-0.8,0.3-0.9,0.7c0,0-0.4,0.9-0.7,2.2c-2.3-0.4-4.3-0.5-5.4-0.5s-3.1,0.1-5.4,0.5c-0.3-1.3-0.7-2.2-0.7-2.2
	C21.2,0.2,20.7,0,20.2,0z M19.5,2.6c0.1,0.2,0.1,0.5,0.2,0.7C17,4,14,5,11.3,6.7c-0.4,0.2-0.7,0.6-0.7,1.1c0,0.5,0.3,0.9,0.7,1.1
	c0.4,0.2,0.9,0.1,1.3-0.2c5.5-3.4,12.6-3.9,15-3.9s9.4,0.5,15,3.9c0.4,0.3,0.9,0.4,1.3,0.2c0.4-0.2,0.7-0.6,0.7-1.1
	c0-0.5-0.3-0.9-0.7-1.1C40.9,5,38,4,35.3,3.3c0.1-0.3,0.1-0.5,0.2-0.7c1.4,0.2,6.7,0.9,10.3,3.7c0.2,0.2,1,1.4,1.8,3.1
	s1.5,3.8,2.3,6.3c1.5,4.8,2.6,10.8,2.7,16.2c-1.4,2.2-3.9,3.8-6.5,4.9c-2.4,0.9-4.6,1.3-5.8,1.5l-2-2.7c1-0.3,2-0.7,2.8-1
	c3-1.3,4.6-2.7,4.6-2.7c0.5-0.4,0.5-1.2,0.1-1.7s-1.2-0.5-1.7-0.1c0,0-1.3,1.1-4,2.4c-1,0.4-2.2,0.9-3.6,1.3c-0.3,0-0.6,0.1-0.9,0.3
	c-2.2,0.5-4.9,0.9-8,0.9c-3.1,0-5.8-0.4-8-0.9c-0.3-0.2-0.6-0.2-0.9-0.2c-1.4-0.4-2.6-0.9-3.6-1.3c-2.7-1.2-4-2.4-4-2.4
	c-0.3-0.3-0.6-0.4-1-0.3c-0.5,0.1-0.8,0.4-1,0.9c-0.1,0.4,0,0.9,0.4,1.2c0,0,1.6,1.4,4.6,2.7c0.8,0.4,1.7,0.7,2.8,1l-2,2.7
	c-1.2-0.1-3.4-0.5-5.8-1.5c-2.6-1-5.2-2.7-6.5-4.9c0.1-5.4,1.2-11.4,2.7-16.2c0.7-2.5,1.5-4.6,2.3-6.3S9,6.5,9.2,6.3
	C12.8,3.5,18.1,2.8,19.5,2.6z M19.7,16.7c-3,0-5.4,2.8-5.4,6s2.3,6,5.4,6s5.4-2.8,5.4-6S22.8,16.7,19.7,16.7z M35.2,16.7
	c-3,0-5.4,2.8-5.4,6s2.3,6,5.4,6c3,0,5.4-2.8,5.4-6S38.3,16.7,35.2,16.7z M19.7,19.1c1.6,0,3,1.5,3,3.6s-1.4,3.6-3,3.6s-3-1.5-3-3.6
	S18.1,19.1,19.7,19.1z M35.2,19.1c1.6,0,3,1.5,3,3.6s-1.4,3.6-3,3.6c-1.6,0-3-1.5-3-3.6S33.7,19.1,35.2,19.1z"/>
</svg>
