<svg xmlns="http://www.w3.org/2000/svg" width="78.82" height="22.287" viewBox="0 0 88.82 22.287" fill="white" class="Navbar___StyledLogoSvg-sc-1hep2lw-2 gjNFAf"><path d="M5.478 21.981H.001V0h9.938c5.543 0 8.987 2.449 8.987 7.163 0 4.684-3.444 7.164-8.987 7.164H5.478Zm4.165-11.939c2.591 0 3.9-1.072 3.9-2.878s-1.312-2.847-3.9-2.847H5.478v5.725ZM19.09 17.48c0-3.337 3.018-4.684 6.658-5.174l3.871-.612v-.276c0-1.194-.689-1.959-2.394-1.959a2.336 2.336 0 0 0-2.624 1.929l-5.019-.7c.754-2.847 3.477-5.174 7.872-5.174 4.526 0 7.314 1.929 7.314 5.694v6.215c0 .826.328 1.071 1.345.949v3.612c-3.018.459-5.051-.061-5.937-1.439a7.145 7.145 0 0 1-5.117 1.745c-3.477 0-5.97-1.959-5.97-4.806m10.529-2.633-3.018.52c-1.378.214-2.395.643-2.395 1.776 0 1.01.82 1.561 2.066 1.561 1.738 0 3.346-.857 3.346-2.51ZM41.722 21.981 35.49 5.849h5.412l3.51 10.164 3.51-10.164h5.215l-6.232 16.133ZM54.482 0h5.346v4.194h-5.346Zm5.281 21.981h-5.248V5.847h5.248ZM61.797 17.48c0-3.337 3.018-4.684 6.658-5.174l3.871-.612v-.276c0-1.194-.689-1.959-2.395-1.959a2.336 2.336 0 0 0-2.624 1.929l-5.019-.7c.754-2.847 3.477-5.174 7.872-5.174 4.526 0 7.314 1.929 7.314 5.694v6.215c0 .826.328 1.071 1.345.949v3.612c-3.018.459-5.051-.061-5.937-1.439a7.145 7.145 0 0 1-5.117 1.745c-3.477 0-5.969-1.959-5.969-4.806m10.529-2.633-3.018.52c-1.378.214-2.394.643-2.394 1.776 0 1.01.82 1.561 2.066 1.561 1.738 0 3.346-.857 3.346-2.51Z"></path></svg>