{
    "asset" : {
        "generator" : "Khronos glTF Blender I/O v3.2.40",
        "version" : "2.0"
    },
    "scene" : 0,
    "scenes" : [
        {
            "name" : "Scene",
            "nodes" : [
                0,
                1
            ]
        }
    ],
    "nodes" : [
        {
            "mesh" : 0,
            "name" : "MP_DSP_Arm_L",
            "rotation" : [
                0.013257947750389576,
                0.9999121427536011,
                0,
                7.520139888583799e-08
            ],
            "scale" : [
                0.0013065601233392954,
                0.0013065601233392954,
                0.0013065600069239736
            ],
            "translation" : [
                -0.06312534213066101,
                -0.09193404763936996,
                -0.007379045244306326
            ]
        },
        {
            "mesh" : 1,
            "name" : "MP_DSP_Frame_Arm_L",
            "rotation" : [
                0.7071068286895752,
                0,
                0,
                0.7071067094802856
            ],
            "scale" : [
                0.009999999776482582,
                0.009999999776482582,
                0.009999999776482582
            ]
        }
    ],
    "materials" : [
        {
            "doubleSided" : true,
            "emissiveFactor" : [
                1,
                1,
                1
            ],
            "emissiveTexture" : {
                "index" : 0
            },
            "name" : "MP_DSP_ClassSpecific",
            "normalTexture" : {
                "index" : 1
            },
            "pbrMetallicRoughness" : {
                "baseColorTexture" : {
                    "index" : 2
                },
                "metallicRoughnessTexture" : {
                    "index" : 3
                },
                "roughnessFactor" : 0.30000001192092896
            }
        },
        {
            "doubleSided" : true,
            "emissiveFactor" : [
                1,
                1,
                1
            ],
            "emissiveTexture" : {
                "index" : 4
            },
            "name" : "MP_FRAME",
            "normalTexture" : {
                "index" : 5
            },
            "pbrMetallicRoughness" : {
                "baseColorTexture" : {
                    "index" : 6
                },
                "metallicRoughnessTexture" : {
                    "index" : 7
                }
            }
        }
    ],
    "meshes" : [
        {
            "name" : "Mesh.038",
            "primitives" : [
                {
                    "attributes" : {
                        "POSITION" : 0,
                        "NORMAL" : 1,
                        "TEXCOORD_0" : 2
                    },
                    "indices" : 3,
                    "material" : 0
                }
            ]
        },
        {
            "name" : "Mesh.039",
            "primitives" : [
                {
                    "attributes" : {
                        "POSITION" : 4,
                        "NORMAL" : 5,
                        "TEXCOORD_0" : 6,
                        "TEXCOORD_1" : 7,
                        "TEXCOORD_2" : 8,
                        "TEXCOORD_3" : 9,
                        "TEXCOORD_4" : 10,
                        "TEXCOORD_5" : 11,
                        "TEXCOORD_6" : 12,
                        "TEXCOORD_7" : 13,
                        "COLOR_0" : 14
                    },
                    "indices" : 15,
                    "material" : 1
                }
            ]
        }
    ],
    "textures" : [
        {
            "sampler" : 0,
            "source" : 0
        },
        {
            "sampler" : 0,
            "source" : 1
        },
        {
            "sampler" : 0,
            "source" : 2
        },
        {
            "sampler" : 0,
            "source" : 3
        },
        {
            "sampler" : 0,
            "source" : 4
        },
        {
            "sampler" : 0,
            "source" : 5
        },
        {
            "sampler" : 0,
            "source" : 6
        },
        {
            "sampler" : 0,
            "source" : 7
        }
    ],
    "images" : [
        {
            "mimeType" : "image/jpeg",
            "name" : "MP_DSP_ClassSpecific_E",
            "uri" : "https://mechpavs.vercel.app/assets/models/textures/MP_DSP_ClassSpecific_E.jpg"
        },
        {
            "mimeType" : "image/jpeg",
            "name" : "MP_DSP_ClassSpecific_N",
            "uri" : "https://mechpavs.vercel.app/assets/models/textures/MP_DSP_ClassSpecific_N.jpg"
        },
        {
            "mimeType" : "image/jpeg",
            "name" : "MP_DSP_ClassSpecific_A",
            "uri" : "https://mechpavs.vercel.app/assets/models/textures/MP_DSP_ClassSpecific_A.jpg"
        },
        {
            "mimeType" : "image/png",
            "name" : "MP_DSP_ClassSpecific_M",
            "uri" : "https://mechpavs.vercel.app/assets/models/textures/MP_DSP_ClassSpecific_M.png"
        },
        {
            "mimeType" : "image/jpeg",
            "name" : "MP_Frame_E",
            "uri" : "https://mechpavs.vercel.app/assets/models/textures/MP_Frame_E.jpg"
        },
        {
            "mimeType" : "image/jpeg",
            "name" : "MP_Frame_N",
            "uri" : "https://mechpavs.vercel.app/assets/models/textures/MP_Frame_N.jpg"
        },
        {
            "mimeType" : "image/jpeg",
            "name" : "MP_Frame_A",
            "uri" : "https://mechpavs.vercel.app/assets/models/textures/MP_Frame_A.jpg"
        },
        {
            "mimeType" : "image/png",
            "name" : "MP_Frame_M-MP_Frame_R",
            "uri" : "https://mechpavs.vercel.app/assets/models/textures/MP_Frame_M-MP_Frame_R.png"
        }
    ],
    "accessors" : [
        {
            "bufferView" : 0,
            "componentType" : 5126,
            "count" : 1942,
            "max" : [
                -220.11618041992188,
                1936.591796875,
                95.2708740234375
            ],
            "min" : [
                -561.3468627929688,
                1080.5001220703125,
                -161.6057891845703
            ],
            "type" : "VEC3"
        },
        {
            "bufferView" : 1,
            "componentType" : 5126,
            "count" : 1942,
            "type" : "VEC3"
        },
        {
            "bufferView" : 2,
            "componentType" : 5126,
            "count" : 1942,
            "type" : "VEC2"
        },
        {
            "bufferView" : 3,
            "componentType" : 5123,
            "count" : 9042,
            "type" : "SCALAR"
        },
        {
            "bufferView" : 4,
            "componentType" : 5126,
            "count" : 7563,
            "max" : [
                55.548736572265625,
                24.510787963867188,
                -106.44502258300781
            ],
            "min" : [
                33.92543029785156,
                -3.8932838439941406,
                -206.05445861816406
            ],
            "type" : "VEC3"
        },
        {
            "bufferView" : 5,
            "componentType" : 5126,
            "count" : 7563,
            "type" : "VEC3"
        },
        {
            "bufferView" : 6,
            "componentType" : 5126,
            "count" : 7563,
            "type" : "VEC2"
        },
        {
            "bufferView" : 7,
            "componentType" : 5126,
            "count" : 7563,
            "type" : "VEC2"
        },
        {
            "bufferView" : 8,
            "componentType" : 5126,
            "count" : 7563,
            "type" : "VEC2"
        },
        {
            "bufferView" : 9,
            "componentType" : 5126,
            "count" : 7563,
            "type" : "VEC2"
        },
        {
            "bufferView" : 10,
            "componentType" : 5126,
            "count" : 7563,
            "type" : "VEC2"
        },
        {
            "bufferView" : 11,
            "componentType" : 5126,
            "count" : 7563,
            "type" : "VEC2"
        },
        {
            "bufferView" : 12,
            "componentType" : 5126,
            "count" : 7563,
            "type" : "VEC2"
        },
        {
            "bufferView" : 13,
            "componentType" : 5126,
            "count" : 7563,
            "type" : "VEC2"
        },
        {
            "bufferView" : 14,
            "componentType" : 5123,
            "count" : 7563,
            "normalized" : true,
            "type" : "VEC4"
        },
        {
            "bufferView" : 15,
            "componentType" : 5123,
            "count" : 11097,
            "type" : "SCALAR"
        }
    ],
    "bufferViews" : [
        {
            "buffer" : 0,
            "byteLength" : 23304,
            "byteOffset" : 0
        },
        {
            "buffer" : 0,
            "byteLength" : 23304,
            "byteOffset" : 23304
        },
        {
            "buffer" : 0,
            "byteLength" : 15536,
            "byteOffset" : 46608
        },
        {
            "buffer" : 0,
            "byteLength" : 18084,
            "byteOffset" : 62144
        },
        {
            "buffer" : 0,
            "byteLength" : 90756,
            "byteOffset" : 80228
        },
        {
            "buffer" : 0,
            "byteLength" : 90756,
            "byteOffset" : 170984
        },
        {
            "buffer" : 0,
            "byteLength" : 60504,
            "byteOffset" : 261740
        },
        {
            "buffer" : 0,
            "byteLength" : 60504,
            "byteOffset" : 322244
        },
        {
            "buffer" : 0,
            "byteLength" : 60504,
            "byteOffset" : 382748
        },
        {
            "buffer" : 0,
            "byteLength" : 60504,
            "byteOffset" : 443252
        },
        {
            "buffer" : 0,
            "byteLength" : 60504,
            "byteOffset" : 503756
        },
        {
            "buffer" : 0,
            "byteLength" : 60504,
            "byteOffset" : 564260
        },
        {
            "buffer" : 0,
            "byteLength" : 60504,
            "byteOffset" : 624764
        },
        {
            "buffer" : 0,
            "byteLength" : 60504,
            "byteOffset" : 685268
        },
        {
            "buffer" : 0,
            "byteLength" : 60504,
            "byteOffset" : 745772
        },
        {
            "buffer" : 0,
            "byteLength" : 22194,
            "byteOffset" : 806276
        }
    ],
    "samplers" : [
        {
            "magFilter" : 9729,
            "minFilter" : 9987
        }
    ],
    "buffers" : [
        {
            "byteLength" : 828472,
            "uri" : "armLDSP.bin"
        }
    ]
}
